<svg width="22" height="18" viewBox="0 0 22 18" fill="none" xmlns="http://www.w3.org/2000/svg">
<path d="M20 0H2C1.46957 0 0.960859 0.210714 0.585786 0.585786C0.210714 0.960859 0 1.46957 0 2V5H2V2H20V16H13V18H20C20.5304 18 21.0391 17.7893 21.4142 17.4142C21.7893 17.0391 22 16.5304 22 16V2C22 1.46957 21.7893 0.960859 21.4142 0.585786C21.0391 0.210714 20.5304 0 20 0ZM0 15V18H3C3 17.2044 2.68393 16.4413 2.12132 15.8787C1.55871 15.3161 0.795649 15 0 15M0 11V13C0.656609 13 1.30679 13.1293 1.91342 13.3806C2.52005 13.6319 3.07124 14.0002 3.53553 14.4645C3.99983 14.9288 4.36812 15.48 4.6194 16.0866C4.87067 16.6932 5 17.3434 5 18H7C7 16.1435 6.2625 14.363 4.94975 13.0503C3.63699 11.7375 1.85652 11 0 11M0 7V9C1.1819 9 2.35222 9.23279 3.44415 9.68508C4.53608 10.1374 5.52823 10.8003 6.36396 11.636C7.19969 12.4718 7.86262 13.4639 8.31492 14.5558C8.76721 15.6478 9 16.8181 9 18H11C11 11.92 6.07 7 0 7ZM10 8.09V10.09L13.5 12L17 10.09V8.09L13.5 10L10 8.09ZM13.5 3L8 6L13.5 9L19 6L13.5 3Z" fill="#0C8041"/>
</svg>
