<svg width="20" height="22" viewBox="0 0 20 22" fill="none" xmlns="http://www.w3.org/2000/svg">
<path d="M17.5 10.3889V4.88889L14.8625 6.18444C14.95 6.55111 15 6.93 15 7.33333C15 10.0344 12.7625 12.2222 10 12.2222C7.2375 12.2222 5 10.0344 5 7.33333C5 6.93 5.05 6.55111 5.1375 6.18444L1.25 4.27778L10 0L18.75 4.27778V10.3889H17.5ZM10 8.55556L7.5 7.33333C7.5 8.67778 8.625 9.77778 10 9.77778C11.375 9.77778 12.5 8.67778 12.5 7.33333L10 8.55556ZM13.4375 4.18L10.2 2.56667L6.8375 4.24111L10.0875 5.85444L13.4375 4.18ZM10 13.4444C13.3375 13.4444 20 15.07 20 18.3333V22H0V18.3333C0 15.07 6.6625 13.4444 10 13.4444ZM10 15.7667C6.25 15.7667 2.375 17.5511 2.375 18.3333V19.6778H17.625V18.3333C17.625 17.5511 13.7125 15.7667 10 15.7667Z" fill="#0C8041"/>
</svg>
